<?xml version="1.0" standalone="no"?>
<!DOCTYPE svg PUBLIC "-//W3C//DTD SVG 20010904//EN"
 "http://www.w3.org/TR/2001/REC-SVG-20010904/DTD/svg10.dtd">
<svg version="1.0" xmlns="http://www.w3.org/2000/svg"
 width="50.000000pt" height="50.000000pt" viewBox="0 0 50.000000 50.000000"
 preserveAspectRatio="xMidYMid meet">

<g transform="translate(0.000000,50.000000) scale(0.100000,-0.100000)"
fill="#000000" stroke="none">
<path d="M215 493 c-89 -20 -150 -65 -188 -137 -29 -57 -29 -155 0 -212 77
-146 266 -184 385 -76 59 53 82 105 82 182 0 74 -22 125 -76 177 -50 49 -146
80 -203 66z m113 -113 c40 -24 72 -75 72 -115 l0 -29 -42 41 c-24 22 -61 46
-83 53 -63 19 -89 38 -74 56 17 21 88 17 127 -6z m-158 -50 c0 -25 54 -86 93
-107 17 -8 52 -16 79 -16 55 -1 60 -12 21 -49 -55 -51 -104 -61 -167 -34 -73
31 -107 142 -63 209 19 30 37 28 37 -3z"/>
</g>
</svg>
